<svg width="34" height="30" viewBox="0 0 34 30" fill="none" xmlns="http://www.w3.org/2000/svg">
<path d="M32 17C33.1046 17 34 16.1046 34 15C34 13.8954 33.1046 13 32 13L32 17ZM0.585788 13.5858C-0.195261 14.3668 -0.195261 15.6332 0.585787 16.4142L13.3137 29.1421C14.0948 29.9232 15.3611 29.9232 16.1421 29.1421C16.9232 28.3611 16.9232 27.0948 16.1421 26.3137L4.82843 15L16.1421 3.68629C16.9232 2.90524 16.9232 1.63891 16.1421 0.857863C15.3611 0.0768143 14.0948 0.0768142 13.3137 0.857863L0.585788 13.5858ZM32 13L2 13L2 17L32 17L32 13Z" fill="#6100FF"/>
</svg>
