<svg width="39" height="46" viewBox="0 0 39 46" fill="none" xmlns="http://www.w3.org/2000/svg">
<path fill-rule="evenodd" clip-rule="evenodd" d="M22.9039 3C22.9039 1.34315 21.5607 0 19.9039 0C18.247 0 16.9039 1.34315 16.9039 3V17.7115C16.9039 19.3684 18.247 20.7115 19.9039 20.7115C21.5607 20.7115 22.9039 19.3684 22.9039 17.7115V3ZM7.957 10.2307C9.00834 9.45982 10.4578 9.87509 11.096 11.0119C11.7341 12.1488 11.3145 13.5741 10.2939 14.3853C8.34859 15.9313 6.81482 17.9525 5.85118 20.2705C4.58375 23.3192 4.37584 26.705 5.26074 29.8859C6.14565 33.0668 8.07218 35.8588 10.7319 37.815C13.3917 39.7712 16.6309 40.7785 19.931 40.6756C23.2311 40.5726 26.4012 39.3655 28.9339 37.2473C31.4666 35.1292 33.2154 32.2225 33.9003 28.9927C34.5853 25.7628 34.1668 22.3966 32.7118 19.4328C31.6056 17.1793 29.9488 15.2576 27.911 13.8358C26.8418 13.0898 26.3342 11.6934 26.9002 10.519C27.4663 9.34461 28.8871 8.83981 29.9844 9.54373C32.9627 11.4542 35.3775 14.1494 36.9498 17.3523C38.8704 21.2648 39.4229 25.7085 38.5187 29.9721C37.6145 34.2358 35.306 38.0727 31.9626 40.8689C28.6193 43.665 24.4345 45.2585 20.0782 45.3944C15.7218 45.5302 11.4458 44.2006 7.93476 41.6183C4.42367 39.0359 1.8805 35.3503 0.712367 31.1513C-0.455768 26.9523 -0.181318 22.4827 1.49178 18.4582C2.86145 15.1636 5.10362 12.3231 7.957 10.2307Z" fill="white"/>
</svg>
