<svg width="39" height="45" viewBox="0 0 39 45" fill="none" xmlns="http://www.w3.org/2000/svg">
<path fill-rule="evenodd" clip-rule="evenodd" d="M30.254 11.25C30.254 17.4632 25.2172 22.5 19.004 22.5C12.7908 22.5 7.75396 17.4632 7.75396 11.25C7.75396 5.0368 12.7908 0 19.004 0C25.2172 0 30.254 5.0368 30.254 11.25ZM34.2898 45C36.499 45 38.324 43.1971 37.9623 41.0177C37.253 36.7443 35.4123 32.7758 32.6412 29.6583C29.0244 25.5894 24.119 23.3036 19.0041 23.3036C13.8892 23.3036 8.98382 25.5894 5.36705 29.6583C2.59597 32.7758 0.755252 36.7443 0.0459512 41.0177C-0.315768 43.197 1.50925 45 3.71839 45L19.0041 45H34.2898ZM22.9814 17.7559C24.0363 16.7763 24.629 15.4478 24.629 14.0625H19.004L13.379 14.0625C13.379 15.4478 13.9716 16.7763 15.0265 17.7559C16.0814 18.7354 17.5121 19.2857 19.004 19.2857C20.4958 19.2857 21.9265 18.7354 22.9814 17.7559Z" fill="white"/>
</svg>
