<svg width="42" height="43" viewBox="0 0 42 43" fill="none" xmlns="http://www.w3.org/2000/svg">
<path fill-rule="evenodd" clip-rule="evenodd" d="M24.9279 33.8789C34.2833 33.8789 41.8673 26.2949 41.8673 16.9395C41.8673 7.58406 34.2833 0 24.9279 0C15.5725 0 7.98839 7.58406 7.98839 16.9395C7.98839 20.5867 9.14104 23.9647 11.1019 26.729L1.47483 36.3561C0.107998 37.723 0.107998 39.939 1.47483 41.3059C2.84167 42.6727 5.05775 42.6727 6.42458 41.3059L16.2438 31.4867C18.7832 33.0058 21.7536 33.8789 24.9279 33.8789ZM24.9279 27.4256C19.1365 27.4256 14.4418 22.7308 14.4418 16.9395C14.4418 11.1482 19.1365 6.45337 24.9279 6.45337C30.7192 6.45337 35.414 11.1482 35.414 16.9395C35.414 22.7308 30.7192 27.4256 24.9279 27.4256Z" fill="white"/>
</svg>
